<?xml version="1.0" standalone="no"?>
<!DOCTYPE svg PUBLIC "-//W3C//DTD SVG 20010904//EN"
 "http://www.w3.org/TR/2001/REC-SVG-20010904/DTD/svg10.dtd">
<svg version="1.0" xmlns="http://www.w3.org/2000/svg"
 width="344.000000pt" height="344.000000pt" viewBox="0 0 344.000000 344.000000"
 preserveAspectRatio="xMidYMid meet">
<metadata>
Created by potrace 1.11, written by Peter Selinger 2001-2013
</metadata>
<g transform="translate(0.000000,344.000000) scale(0.100000,-0.100000)"
fill="#000000" stroke="none">
<path d="M369 3214 c-55 -17 -105 -57 -131 -107 l-22 -42 0 -1020 -1 -1020 24
-45 c26 -52 67 -87 119 -106 29 -10 165 -13 613 -14 540 0 577 -1 582 -17 3
-10 21 -74 41 -143 20 -69 45 -154 55 -190 11 -36 29 -101 41 -145 32 -115 39
-131 63 -142 13 -5 283 -9 667 -8 l645 1 45 24 c50 28 98 90 109 141 4 19 7
484 7 1034 l-1 1000 -23 44 c-24 46 -48 71 -97 99 -27 15 -85 17 -625 22
l-594 5 -7 30 c-4 17 -14 57 -24 90 -9 33 -25 89 -35 125 -89 316 -98 338
-161 375 -33 19 -54 20 -642 20 -436 0 -620 -3 -648 -11z"/>
</g>
</svg>
